<svg id="Capa_1" enable-background="new 0 0 510 510" height="512" viewBox="0 0 510 510" width="512" xmlns="http://www.w3.org/2000/svg"><g><path d="m406.353 0v300c-6.243 0-369.732 0-392.707 0l35 210h205.414l30-180h122.293v180h90v-510zm-157.707 360h-82.293v-30h87.293zm-82.293 30h77.293l-5 30h-72.293zm-30 30h-72.293l-5-30h77.293zm0-90v30h-82.293l-5-30zm-67.293 120h67.293v30h-62.293zm97.293 30v-30h67.293l-5 30z"/><path d="m301.353 75h75v30h-75z"/><path d="m286.353 135h90v30h-90z"/><path d="m301.353 195h75v30h-75z"/><path d="m196.353 165c0 26.597 23.145 47.683 49.971 44.719 12.853-27.342 13.881-59.908.001-89.437-26.863-2.968-49.972 18.154-49.972 44.718z"/><path d="m136.353 165c0 36.216-25.803 66.517-59.99 73.489 41.076 42.013 108.899 42.026 149.981 0-34.187-6.972-59.991-37.273-59.991-73.489s25.803-66.517 59.99-73.489c-41.075-42.014-108.9-42.025-149.981 0 34.188 6.971 59.991 37.273 59.991 73.489z"/><path d="m106.353 165c0-26.648-23.197-47.681-49.971-44.719-12.854 27.345-13.88 59.912-.001 89.437 26.864 2.968 49.972-18.154 49.972-44.718z"/></g></svg>